<svg width="22" height="22" viewBox="0 0 22 22" fill="none" xmlns="http://www.w3.org/2000/svg">
<path d="M1.83325 18.3333H3.66659M3.66659 18.3333H10.9999M3.66659 18.3333V6.59996C3.66659 5.57329 3.66659 5.05996 3.86642 4.66763C4.04242 4.32204 4.322 4.04246 4.66759 3.86646C5.05992 3.66663 5.57325 3.66663 6.59992 3.66663H8.06659C9.09325 3.66663 9.60658 3.66663 9.99892 3.86646C10.3439 4.04222 10.6243 4.32268 10.8001 4.66763C10.9999 5.05904 10.9999 5.57238 10.9999 6.59721V9.39304M10.9999 18.3333H18.3333M10.9999 18.3333V9.39304M10.9999 9.39304L11.3308 9.09421C12.0238 8.47179 12.3703 8.16104 12.7627 8.04279C13.1076 7.93885 13.4755 7.93885 13.8205 8.04279C14.2128 8.16104 14.5593 8.47179 15.2523 9.09421L17.3607 10.989C17.7191 11.3107 17.8978 11.472 18.0262 11.6645C18.1401 11.8356 18.2244 12.0247 18.2755 12.2237C18.3333 12.4483 18.3333 12.6894 18.3333 13.1706V18.3333M18.3333 18.3333H20.1666" stroke="#DD5855" stroke-width="2" stroke-linecap="round" stroke-linejoin="round"/>
</svg>
