<svg width="22" height="22" viewBox="0 0 22 22" fill="none" xmlns="http://www.w3.org/2000/svg">
<g id="ion:analytics">
<path id="Vector" d="M19.5938 5.5C19.3139 5.50007 19.0383 5.56847 18.7909 5.69926C18.5435 5.83004 18.3318 6.01926 18.1741 6.25047C18.0165 6.48167 17.9177 6.74788 17.8863 7.02595C17.8549 7.30403 17.8919 7.58556 17.994 7.84609L14.3773 11.4628C13.9742 11.3041 13.5258 11.3041 13.1227 11.4628L10.5372 8.87734C10.6396 8.61675 10.6768 8.3351 10.6455 8.05687C10.6142 7.77864 10.5154 7.51226 10.3578 7.28091C10.2001 7.04955 9.98827 6.86021 9.74075 6.72937C9.49322 6.59852 9.21748 6.53012 8.9375 6.53012C8.65752 6.53012 8.38178 6.59852 8.13425 6.72937C7.88673 6.86021 7.67492 7.04955 7.51724 7.28091C7.35956 7.51226 7.26079 7.77864 7.22951 8.05687C7.19823 8.3351 7.2354 8.61675 7.33777 8.87734L3.03359 13.1815C2.66601 13.0373 2.25998 13.0241 1.88378 13.1441C1.50759 13.264 1.18416 13.5098 0.967899 13.8402C0.751635 14.1706 0.655716 14.5653 0.696272 14.9581C0.736828 15.3509 0.911385 15.7177 1.19059 15.9969C1.4698 16.2761 1.83663 16.4507 2.2294 16.4912C2.62217 16.5318 3.01693 16.4359 3.34729 16.2196C3.67766 16.0033 3.92349 15.6799 4.04345 15.3037C4.16341 14.9275 4.15017 14.5215 4.00598 14.1539L8.31016 9.84973C8.71333 10.0084 9.16167 10.0084 9.56484 9.84973L12.1503 12.4352C12.0479 12.6957 12.0107 12.9774 12.042 13.2556C12.0733 13.5339 12.1721 13.8002 12.3297 14.0316C12.4874 14.263 12.6992 14.4523 12.9468 14.5831C13.1943 14.714 13.47 14.7824 13.75 14.7824C14.03 14.7824 14.3057 14.714 14.5532 14.5831C14.8008 14.4523 15.0126 14.263 15.1703 14.0316C15.3279 13.8002 15.4267 13.5339 15.458 13.2556C15.4893 12.9774 15.4521 12.6957 15.3497 12.4352L18.9664 8.81848C19.2018 8.91094 19.4546 8.95033 19.7069 8.93384C19.9592 8.91736 20.2048 8.84541 20.4261 8.72311C20.6475 8.60082 20.8391 8.4312 20.9873 8.22636C21.1355 8.02151 21.2367 7.78647 21.2837 7.53802C21.3307 7.28956 21.3223 7.0338 21.259 6.78898C21.1958 6.54415 21.0793 6.31629 20.9179 6.12165C20.7565 5.927 20.5542 5.77037 20.3253 5.66292C20.0964 5.55546 19.8466 5.49983 19.5938 5.5Z" fill="#637381"/>
</g>
</svg>
