<svg width="19" height="18" viewBox="0 0 19 18" fill="none" xmlns="http://www.w3.org/2000/svg">
<g id=" ">
<g id="Vector">
<path d="M1.375 1.29163H18.3333L17.875 3.12496V5.87496V9.54163H11.9167V9.08329V6.33329H5.95833V2.20829H1.375V1.29163Z" fill="#919EAB" fill-opacity="0.16"/>
<path d="M1.375 9.99996H18.3333L17.875 11.8333V14.5833L18.3333 17.7916H1.375L1.83333 16.4166V11.375V10.9166H5.95833H1.375V9.99996Z" fill="#919EAB" fill-opacity="0.16"/>
</g>
<path id="Vector_2" d="M15.1758 7.69904C15.2792 7.69925 15.3589 7.69916 15.4386 7.70001C15.454 7.70017 15.4693 7.704 15.4997 7.70821C15.4997 7.88417 15.4997 8.06222 15.4997 8.24992C15.1158 8.24992 14.7356 8.24992 14.3386 8.24992C14.3386 8.07413 14.3386 7.89681 14.3386 7.69905C14.6138 7.69905 14.8829 7.69905 15.1758 7.69904Z" fill="#637381"/>
<path id="Vector_3" d="M15.1285 4.54415C14.8516 4.54413 14.5984 4.54413 14.3337 4.54413C14.3337 4.35332 14.3337 4.1816 14.3337 3.99707C14.7245 3.99707 15.1099 3.99707 15.5053 3.99707C15.5053 4.17506 15.5053 4.34731 15.5053 4.54417C15.3854 4.54417 15.2688 4.54417 15.1285 4.54415Z" fill="#637381"/>
<path id="Vector_4" d="M8.3756 4.17433C8.41303 4.09653 8.44852 3.99372 8.48792 3.99232C8.84192 3.97973 9.1966 3.98497 9.56021 3.98497C9.56021 4.1774 9.56021 4.3486 9.56021 4.53208C9.16832 4.53208 8.78419 4.53208 8.37549 4.53208C8.37549 4.41952 8.37549 4.30794 8.3756 4.17433Z" fill="#637381"/>
<path id="Vector_5" d="M10.7608 13.6338C10.7608 13.4586 10.7608 13.3063 10.7608 13.14C10.9494 13.14 11.1299 13.14 11.3283 13.14C11.3283 13.4989 11.3283 13.8693 11.3283 14.2554C11.1582 14.2554 10.9792 14.2554 10.7607 14.2554C10.7607 14.061 10.7607 13.8588 10.7608 13.6338Z" fill="#637381"/>
<path id="Vector_6" d="M8.71081 13.1264C8.80383 13.1264 8.87348 13.1264 8.95193 13.1264C8.95193 13.5114 8.95193 13.8763 8.95193 14.2561C8.77008 14.2561 8.59031 14.2561 8.39282 14.2561C8.39282 13.8934 8.39282 13.5233 8.39282 13.1264C8.48658 13.1264 8.58701 13.1264 8.71081 13.1264Z" fill="#637381"/>
<path id="Vector_7" d="M1.14857 17.9843C0.968191 17.9001 0.910543 17.7598 0.917267 17.5722C0.92768 17.2816 0.919374 16.9905 0.920036 16.6996C0.92086 16.3382 1.00092 16.2626 1.38738 16.2565C1.42596 16.2559 1.46456 16.2565 1.5251 16.2565C1.5251 16.1778 1.5251 16.1108 1.5251 16.0439C1.52511 14.4592 1.52351 12.8746 1.5279 11.29C1.52829 11.1481 1.49808 11.0624 1.35578 10.9839C0.999254 10.7872 0.850323 10.4052 0.952404 10.0371C1.0518 9.67871 1.39661 9.41987 1.7999 9.40817C2.0035 9.40227 2.20745 9.40714 2.42395 9.38997C1.91398 9.16532 1.78089 8.76661 1.81007 8.27848C1.82557 8.01906 1.81107 7.75806 1.81335 7.4978C1.81572 7.22741 1.92423 7.11701 2.20016 7.11597C2.94252 7.11317 3.68492 7.11269 4.42728 7.11605C4.68525 7.11721 4.78678 7.21902 4.789 7.46735C4.79222 7.82713 4.79394 8.18699 4.789 8.54672C4.78325 8.96519 4.5593 9.24143 4.07373 9.38918C4.65469 9.38918 5.1784 9.38918 5.72325 9.38918C5.67353 9.36205 5.63404 9.33874 5.59297 9.31836C5.17898 9.11286 4.95127 8.59346 5.12169 8.17756C5.15743 8.09031 5.30797 7.99346 5.40754 7.9915C6.1895 7.97614 6.97194 7.98156 7.75422 7.98353C7.95526 7.98403 8.05937 8.09221 8.07921 8.28041C8.13594 8.81858 7.93772 9.1604 7.41175 9.3939C7.96016 9.3939 8.47983 9.3939 9.04804 9.3939C8.48144 9.19276 8.33513 8.79438 8.37356 8.29417C8.38929 8.0894 8.48865 7.98339 8.70276 7.98315C9.47706 7.98229 10.2514 7.98171 11.0257 7.9834C11.2262 7.98384 11.3315 8.08333 11.346 8.27836C11.3899 8.86864 11.2313 9.14633 10.6901 9.3978C11.0088 9.3978 11.3144 9.3978 11.6303 9.3978C11.6303 8.45176 11.6303 7.51471 11.6303 6.55681C11.5377 6.55681 11.4521 6.55681 11.3665 6.55681C9.62629 6.55681 7.8861 6.55705 6.14591 6.55664C5.78239 6.55656 5.69309 6.47141 5.69298 6.12779C5.69262 5.01778 5.69269 3.90777 5.6926 2.79776C5.6926 2.72331 5.6926 2.64886 5.6926 2.55766C5.09941 2.55766 4.52672 2.55773 3.95404 2.55764C3.2436 2.55753 2.53307 2.5634 1.82274 2.55488C1.37641 2.54953 1.01531 2.25126 0.939991 1.85199C0.862183 1.43955 1.08523 1.04817 1.50139 0.898298C1.62477 0.853865 1.76543 0.835747 1.8982 0.835671C7.20659 0.832613 12.515 0.831165 17.8234 0.840061C18.0266 0.840402 18.2297 0.944788 18.4566 1.01842C18.9122 1.47434 18.9086 1.88906 18.4524 2.37752C18.224 2.44104 18.1912 2.58182 18.1919 2.77921C18.1996 4.89567 18.2007 7.01219 18.1905 9.12863C18.1894 9.36004 18.2239 9.52612 18.4823 9.60835C18.905 10.028 18.9042 10.4466 18.4706 10.9296C18.2179 11.0115 18.1904 11.1801 18.1917 11.3968C18.2007 12.9328 18.1965 14.4688 18.1965 16.0048C18.1965 16.0868 18.1965 16.1688 18.1965 16.2493C18.3246 16.2493 18.4278 16.2493 18.5461 16.2584C18.7587 16.3247 18.8013 16.4713 18.8027 16.645C18.8054 16.9887 18.8109 17.3324 18.8087 17.6898C18.8028 17.7233 18.8034 17.743 18.7936 17.7714C18.7751 17.805 18.7669 17.8299 18.7443 17.8617C18.6315 17.9109 18.5333 17.9532 18.4165 17.9898C18.3464 17.9879 18.2949 17.9918 18.2278 17.9899C18.1907 17.988 18.1692 17.9918 18.126 17.9898C17.8473 17.9879 17.5903 17.9917 17.3177 17.9899C17.2806 17.988 17.2591 17.9918 17.2189 17.99C17.1488 17.9881 17.0973 17.9918 17.0303 17.9899C16.9932 17.988 16.9716 17.9918 16.9284 17.9898C16.6497 17.9879 16.3927 17.9917 16.1201 17.9899C16.083 17.988 16.0615 17.9918 16.0214 17.99C15.9512 17.9881 15.8998 17.9918 15.8327 17.9899C15.7956 17.988 15.7741 17.9918 15.7309 17.9898C15.4522 17.9879 15.1952 17.9917 14.9226 17.9899C14.8855 17.988 14.864 17.9918 14.8238 17.99C14.7537 17.9881 14.7022 17.9918 14.6352 17.9899C14.5981 17.988 14.5765 17.9918 14.5333 17.9898C14.2546 17.9879 13.9976 17.9917 13.725 17.9899C13.6879 17.988 13.6664 17.9918 13.6263 17.99C13.5562 17.9881 13.5047 17.9918 13.4376 17.9899C13.4005 17.988 13.379 17.9918 13.3358 17.9898C13.0571 17.9879 12.8001 17.9917 12.5275 17.9899C12.4904 17.988 12.4689 17.9918 12.4287 17.99C12.3586 17.9881 12.3071 17.9918 12.2401 17.9899C12.203 17.988 12.1815 17.9918 12.1382 17.9898C11.8595 17.9879 11.6025 17.9917 11.3299 17.9899C11.2928 17.988 11.2713 17.9918 11.2312 17.99C11.1611 17.9881 11.1096 17.9918 11.0425 17.9899C11.0054 17.988 10.9839 17.9918 10.9407 17.9898C10.662 17.9879 10.405 17.9917 10.1324 17.9899C10.0953 17.988 10.0738 17.9918 10.0336 17.99C9.96352 17.9881 9.91205 17.9918 9.84499 17.9899C9.80788 17.988 9.78636 17.9918 9.74314 17.9898C9.46445 17.9879 9.20745 17.9917 8.93486 17.9899C8.89775 17.988 8.87623 17.9918 8.83608 17.99C8.76598 17.9881 8.7145 17.9918 8.64745 17.9899C8.61034 17.988 8.58882 17.9918 8.5456 17.9898C8.2669 17.9879 8.0099 17.9917 7.73731 17.9899C7.7002 17.988 7.67868 17.9918 7.63853 17.99C7.56843 17.9881 7.51696 17.9918 7.4499 17.9899C7.41279 17.988 7.39127 17.9918 7.34805 17.9898C7.06935 17.9879 6.81236 17.9917 6.53976 17.9899C6.50266 17.988 6.48114 17.9918 6.44099 17.99C6.37088 17.9881 6.31941 17.9918 6.25235 17.9899C6.21525 17.988 6.19373 17.9918 6.15051 17.9898C5.87181 17.9879 5.61481 17.9917 5.34222 17.9899C5.30511 17.988 5.28359 17.9918 5.24344 17.99C5.17334 17.9881 5.12187 17.9918 5.05481 17.9899C5.0177 17.988 4.99618 17.9918 4.95296 17.9898C4.67426 17.9879 4.41726 17.9917 4.14467 17.9899C4.10756 17.988 4.08605 17.9918 4.0459 17.99C3.97579 17.9881 3.92432 17.9918 3.85726 17.9899C3.82016 17.988 3.79864 17.9918 3.75542 17.9898C3.47672 17.9879 3.21972 17.9917 2.94713 17.9899C2.91002 17.988 2.8885 17.9918 2.84835 17.99C2.77825 17.9881 2.72677 17.9918 2.65972 17.9899C2.62261 17.988 2.60109 17.9918 2.55787 17.9898C2.27917 17.9879 2.02217 17.9917 1.74958 17.9899C1.71247 17.988 1.69096 17.9918 1.65081 17.99C1.5807 17.9881 1.52923 17.9918 1.46217 17.9899C1.42507 17.988 1.40355 17.9918 1.36331 17.9898C1.27925 17.9841 1.21391 17.9842 1.14857 17.9843ZM4.32795 16.2567C6.07151 16.2567 7.81507 16.2567 9.55844 16.2567C9.55844 14.53 9.55844 12.8343 9.55844 11.1327C7.07228 11.1327 4.59704 11.1327 2.12032 11.1327C2.12032 12.8454 2.12032 14.5411 2.12032 16.2567C2.84769 16.2567 3.56387 16.2567 4.32795 16.2567ZM17.0679 11.1158C14.7657 11.1158 12.4635 11.1158 10.1626 11.1158C10.1626 12.8453 10.1626 14.5414 10.1626 16.2405C12.6487 16.2405 15.124 16.2405 17.5991 16.2405C17.5991 14.529 17.5991 12.8337 17.5991 11.1157C17.4301 11.1157 17.2725 11.1157 17.0679 11.1158ZM6.58468 2.55776C6.49092 2.55776 6.39716 2.55776 6.29483 2.55776C6.29483 3.70485 6.29483 4.83178 6.29483 5.9581C8.0826 5.9581 9.85595 5.9581 11.6319 5.9581C11.6319 4.82177 11.6319 3.70064 11.6319 2.55772C9.95931 2.55772 8.29541 2.55772 6.58468 2.55776ZM15.6328 5.97325C16.2847 5.97325 16.9366 5.97325 17.5973 5.97325C17.5973 4.82481 17.5973 3.69792 17.5973 2.5717C15.8091 2.5717 14.0353 2.5717 12.2673 2.5717C12.2673 3.71322 12.2673 4.8407 12.2673 5.97324C13.3842 5.97324 14.4845 5.97324 15.6328 5.97325ZM17.5796 6.56551C15.8173 6.56355 14.055 6.56154 12.2928 6.56081C12.2807 6.56081 12.2686 6.57856 12.2663 6.58034C12.2663 7.52479 12.2663 8.46136 12.2663 9.39001C14.0553 9.39001 15.8287 9.39001 17.6084 9.39001C17.6084 8.44861 17.6084 7.52392 17.5796 6.56551ZM3.60943 10.5554C6.61783 10.5554 9.62623 10.5554 12.6346 10.5554C14.3583 10.5554 16.0819 10.5559 17.8055 10.5548C18.0579 10.5547 18.1864 10.4585 18.1937 10.2756C18.2014 10.0809 18.0712 9.98001 17.8053 9.97497C17.7734 9.97437 17.7415 9.97483 17.7095 9.97483C12.4748 9.97485 7.24 9.97483 2.00523 9.97523C1.92564 9.97524 1.84409 9.97075 1.76683 9.9851C1.57605 10.0205 1.49639 10.145 1.5291 10.321C1.56328 10.5049 1.70983 10.5557 1.88577 10.5556C2.44435 10.5551 3.00294 10.5554 3.60943 10.5554ZM8.0164 16.8422C5.85733 16.8422 3.69827 16.8422 1.53651 16.8422C1.53651 17.0402 1.53651 17.2124 1.53651 17.384C7.09526 17.384 12.6432 17.384 18.1801 17.384C18.1801 17.1946 18.1801 17.0218 18.1801 16.8421C14.7982 16.8421 11.4312 16.8421 8.0164 16.8422ZM8.49541 1.9727C11.5592 1.9727 14.6231 1.97273 17.6869 1.97255C17.7746 1.97254 17.8838 2.00116 17.9452 1.96197C18.0444 1.89861 18.1743 1.79106 18.1761 1.70013C18.1778 1.60797 18.051 1.50081 17.9582 1.42538C17.9155 1.39064 17.8197 1.4142 17.748 1.4142C12.4901 1.41395 7.2321 1.41396 1.97414 1.41424C1.90244 1.41425 1.80704 1.39085 1.76393 1.42552C1.67075 1.50046 1.54306 1.60689 1.54441 1.6989C1.54573 1.7897 1.67834 1.89135 1.77403 1.96275C1.81946 1.99664 1.91301 1.97246 1.98477 1.97247C4.13901 1.97271 6.29326 1.97269 8.49541 1.9727ZM3.04105 8.839C3.31165 8.83879 3.58226 8.83729 3.85285 8.8388C4.03745 8.83983 4.18123 8.75816 4.19504 8.58642C4.21858 8.29395 4.20153 7.99848 4.20153 7.71717C3.58939 7.71717 3.00498 7.71717 2.41592 7.71717C2.41592 7.99414 2.41634 8.25355 2.41579 8.51296C2.41532 8.73182 2.53797 8.83182 2.7566 8.83827C2.83611 8.84061 2.91576 8.83881 3.04105 8.839ZM9.50327 8.54189C9.32611 8.54189 9.14894 8.54189 8.95309 8.54189C9.00296 8.74454 9.10653 8.83732 9.27729 8.8397C9.66601 8.84513 10.055 8.84598 10.4436 8.83916C10.6236 8.836 10.7305 8.74108 10.7509 8.54187C10.3414 8.54187 9.94599 8.54187 9.50327 8.54189ZM5.99045 8.84115C6.36512 8.84156 6.7398 8.84364 7.11445 8.8417C7.30874 8.84069 7.45495 8.78001 7.46251 8.55789C6.86894 8.55789 6.28634 8.55789 5.70374 8.55789C5.69006 8.57968 5.67638 8.60147 5.6627 8.62326C5.75853 8.6943 5.85435 8.76534 5.99045 8.84115Z" fill="#637381"/>
</g>
</svg>
