<svg xmlns="http://www.w3.org/2000/svg" width="22" height="17" viewBox="0 0 22 17" fill="none">
  <path fill-rule="evenodd" clip-rule="evenodd" d="M5.35293 6.92224C2.67556 8.76736 0.916687 11.8867 0.916687 15.4228H1.47063C1.47063 12.0963 3.11824 9.1624 5.62516 7.41604L5.35293 6.92224Z" fill="#919EAB"/>
  <path fill-rule="evenodd" clip-rule="evenodd" d="M10.9988 5.16382C9.6187 5.16382 8.30251 5.44564 7.10468 5.9563L7.37928 6.45251C8.49426 5.98521 9.71813 5.72747 10.9988 5.72747C16.2636 5.72747 20.5294 10.0681 20.5294 15.4228H21.0833C21.0833 9.75735 16.569 5.16382 10.9988 5.16382Z" fill="#919EAB" fill-opacity="0.8"/>
  <path fill-rule="evenodd" clip-rule="evenodd" d="M5.99447 8.08325C3.71243 9.69713 2.21869 12.3829 2.21869 15.4228H5.83823C5.83823 13.7607 6.59575 12.2793 7.77938 11.3182L5.99447 8.08325Z" fill="#637381"/>
  <path fill-rule="evenodd" clip-rule="evenodd" d="M10.9988 6.48865C9.85072 6.48865 8.75468 6.71266 7.7486 7.12215L9.54771 10.3812C10.0093 10.2439 10.497 10.1717 10.9988 10.1717C13.8514 10.1717 16.1618 12.5226 16.1618 15.4228H19.7814C19.7814 10.4896 15.8494 6.48865 10.9988 6.48865Z" fill="#919EAB" fill-opacity="0.8"/>
  <path fill-rule="evenodd" clip-rule="evenodd" d="M10.9989 13.2067C11.8487 13.2067 12.5352 13.9053 12.5352 14.77C12.5352 15.6324 11.8487 16.3333 10.9989 16.3333C10.1514 16.3333 9.46487 15.6324 9.46487 14.77C9.46487 14.3726 9.60927 14.0089 9.85073 13.7343C9.72764 13.4139 9.5856 13.0694 9.42226 12.6985C8.55821 10.863 5.67963 6.06954 4.92447 5.34209C4.08883 5.3156 3.4544 4.91815 3.03303 4.14734C2.60693 3.21996 2.43885 2.30945 2.53591 1.47119C2.62823 0.84973 2.99042 0.630531 3.61774 0.811189C4.23323 1.04243 4.87476 1.53864 5.53996 2.30222C6.1081 3.08748 6.20989 3.91369 5.83586 4.78567C5.97553 5.59261 8.6387 10.2439 9.69449 11.7181C9.8318 11.9084 9.96436 12.1011 10.1017 12.2842C10.3289 12.5781 10.5727 12.8816 10.8473 13.214C10.8971 13.2092 10.9491 13.2067 10.9989 13.2067Z" fill="#637381"/>
</svg>