<svg width="22" height="22" viewBox="0 0 22 22" fill="none" xmlns="http://www.w3.org/2000/svg">
<path d="M11.2016 1.26539C10.0973 1.26969 9.00586 1.35734 8.06055 1.48969L8.49883 3.08984C10.2992 2.72117 12.1813 2.83976 14.0719 3.09414L14.407 1.54984C13.4188 1.34273 12.3059 1.26152 11.2016 1.26539ZM7.40313 1.96492C6.96055 2.0775 6.52657 2.21113 6.11407 2.36496C5.76172 2.49602 5.54258 2.77746 5.29336 3.14398C5.04414 3.51008 4.78633 3.97844 4.52422 4.52027C3.99571 5.60309 3.44442 6.97379 2.93953 8.3273C2.4527 9.63355 2.01227 10.914 1.68442 11.8937C1.94524 11.6875 2.2675 11.5543 2.61168 11.5628C2.90946 10.6863 3.27125 9.65074 3.66442 8.59801C4.16414 7.25738 4.71328 5.89957 5.22032 4.85973C5.47383 4.33551 5.71875 3.8925 5.9336 3.58012C6.14844 3.26601 6.35899 3.09801 6.38047 3.08941C6.77149 2.94461 7.17969 2.82 7.60078 2.71473L7.40313 1.96492ZM15.0602 2.18965L14.8926 2.95578C15.3781 3.1268 15.8379 3.33434 16.2676 3.5784C16.3922 3.64801 16.6328 3.90539 16.8777 4.30973C17.1184 4.71363 17.3805 5.25074 17.6383 5.87379C18.1625 7.11558 18.6867 8.69254 19.1551 10.2351C19.2883 10.682 19.4215 11.1246 19.5461 11.5543C19.8598 11.5972 20.152 11.7476 20.384 11.9625C20.4227 11.9968 20.457 12.0312 20.4914 12.0699C20.3066 11.4125 20.109 10.7164 19.8941 10.0117C19.4258 8.45191 18.893 6.85777 18.3516 5.57301C18.0852 4.92848 17.8102 4.36559 17.5395 3.90969C17.2645 3.45594 17.0023 3.10746 16.6543 2.90723C16.1516 2.62191 15.6188 2.38387 15.0602 2.18965ZM13.6766 8.8773L8.24961 8.92457L8.22813 8.92887C6.92618 9.06637 5.9336 10.2394 5.74883 11.7648C6.01094 11.7777 6.26875 11.7906 6.52227 11.7992C6.68555 10.6046 7.4418 9.79254 8.30547 9.69801L13.6035 9.65074C14.2738 9.76246 14.9914 10.45 15.1762 11.7519C15.4297 11.739 15.6875 11.7304 15.9496 11.7175C15.7391 10.1062 14.8109 9.05348 13.7066 8.8816L13.6766 8.8773ZM19.3441 12.3191C18.2055 12.3793 17.1227 12.4394 16.0785 12.4867C16.7574 15.1078 16.7273 17.7546 16.7231 20.3586C17.9734 20.2382 19.2582 20.0964 20.5902 19.9375C20.616 19.9332 20.6848 19.9074 20.7836 19.7183C20.8824 19.5336 20.977 19.2285 21.0371 18.8504C21.1617 18.0941 21.1746 17.0671 21.0672 16.0488C20.9555 15.0347 20.7191 14.0293 20.3926 13.3246C20.2293 12.9722 20.0445 12.6972 19.8641 12.5339C19.6793 12.3707 19.5246 12.3105 19.3441 12.3191ZM2.54766 12.3363C2.40114 12.3406 2.27352 12.4007 2.12141 12.5425C1.94739 12.7015 1.7652 12.9765 1.60621 13.3289C1.28868 14.0379 1.0618 15.0562 0.948793 16.0875C0.835785 17.1187 0.834066 18.1671 0.933324 18.9449C0.982738 19.3316 1.06008 19.6539 1.14301 19.8472C1.22637 20.0449 1.29641 20.0578 1.24657 20.0492C2.55153 20.2683 3.82254 20.4273 5.07852 20.539C4.83789 18.0382 4.92813 15.3914 5.58985 12.5296C4.64024 12.4867 3.65153 12.4222 2.61211 12.3406C2.5902 12.3406 2.56871 12.3363 2.54766 12.3363ZM15.2879 12.5211C12.2629 12.65 9.49571 12.6972 6.37188 12.5683C5.68868 15.4472 5.60274 18.0812 5.86055 20.6035C9.20352 20.8441 12.4606 20.7367 15.9496 20.4273C15.9539 17.7375 15.984 15.082 15.2879 12.5211Z" fill="#E53935"/>
</svg>
