<svg width="22" height="22" viewBox="0 0 22 22" fill="none" xmlns="http://www.w3.org/2000/svg">
<path d="M12.3752 11C12.983 11 13.5658 10.7585 13.9956 10.3287C14.4254 9.89897 14.6668 9.31608 14.6668 8.70829C14.6668 8.1005 14.4254 7.51761 13.9956 7.08784C13.5658 6.65807 12.983 6.41663 12.3752 6.41663C11.7674 6.41663 11.1845 6.65807 10.7547 7.08784C10.3249 7.51761 10.0835 8.1005 10.0835 8.70829C10.0835 9.31608 10.3249 9.89897 10.7547 10.3287C11.1845 10.7585 11.7674 11 12.3752 11Z" stroke="#E53935" stroke-miterlimit="2"/>
<path d="M10.5418 13.2916L9.62516 16.5M10.5418 13.2916L3.2085 10.5416M10.5418 13.2916L6.41683 9.16665L5.9585 5.04165M9.62516 16.5L5.50016 15.125L3.66683 20.1666M9.62516 16.5L10.3081 19.47C10.3572 19.6687 10.4715 19.8453 10.6326 19.9715C10.7938 20.0978 10.9925 20.1665 11.1972 20.1666H16.0464M5.50016 1.83331H7.79183C13.2918 1.83331 20.1668 2.4979 20.1668 14.6666" stroke="#E53935" stroke-width="1.5" stroke-miterlimit="2" stroke-linecap="round" stroke-linejoin="round"/>
</svg>
