<svg width="22" height="22" viewBox="0 0 22 22" fill="none" xmlns="http://www.w3.org/2000/svg">
<g clip-path="url(#clip0_4002_9258)">
<path d="M17.4354 8.10471C18.4457 8.10471 19.2646 7.28574 19.2646 6.2755C19.2646 5.26525 18.4457 4.44629 17.4354 4.44629C16.4252 4.44629 15.6062 5.26525 15.6062 6.2755C15.6062 7.28574 16.4252 8.10471 17.4354 8.10471Z" stroke="#E53935" stroke-linecap="round" stroke-linejoin="round"/>
<path d="M19.0245 15.0682C20.0348 15.0682 20.8537 14.2492 20.8537 13.239C20.8537 12.2288 20.0348 11.4098 19.0245 11.4098C18.0143 11.4098 17.1953 12.2288 17.1953 13.239C17.1953 14.2492 18.0143 15.0682 19.0245 15.0682Z" stroke="#E53935" stroke-linecap="round" stroke-linejoin="round"/>
<path d="M14.5713 20.6526C15.5815 20.6526 16.4005 19.8336 16.4005 18.8233C16.4005 17.8131 15.5815 16.9941 14.5713 16.9941C13.561 16.9941 12.7421 17.8131 12.7421 18.8233C12.7421 19.8336 13.561 20.6526 14.5713 20.6526Z" stroke="#E53935" stroke-linecap="round" stroke-linejoin="round"/>
<path d="M7.4287 20.6526C8.43894 20.6526 9.2579 19.8336 9.2579 18.8233C9.2579 17.8131 8.43894 16.9941 7.4287 16.9941C6.41845 16.9941 5.59949 17.8131 5.59949 18.8233C5.59949 19.8336 6.41845 20.6526 7.4287 20.6526Z" stroke="#E53935" stroke-linecap="round" stroke-linejoin="round"/>
<path d="M2.97545 15.0682C3.98569 15.0682 4.80466 14.2492 4.80466 13.239C4.80466 12.2288 3.98569 11.4098 2.97545 11.4098C1.9652 11.4098 1.14624 12.2288 1.14624 13.239C1.14624 14.2492 1.9652 15.0682 2.97545 15.0682Z" stroke="#E53935" stroke-linecap="round" stroke-linejoin="round"/>
<path d="M4.56456 8.10471C5.5748 8.10471 6.39377 7.28574 6.39377 6.2755C6.39377 5.26525 5.5748 4.44629 4.56456 4.44629C3.55432 4.44629 2.73535 5.26525 2.73535 6.2755C2.73535 7.28574 3.55432 8.10471 4.56456 8.10471Z" stroke="#E53935" stroke-linecap="round" stroke-linejoin="round"/>
<path d="M11 5.00546C12.0102 5.00546 12.8292 4.1865 12.8292 3.17625C12.8292 2.16601 12.0102 1.34705 11 1.34705C9.98974 1.34705 9.17078 2.16601 9.17078 3.17625C9.17078 4.1865 9.98974 5.00546 11 5.00546Z" stroke="#E53935" stroke-linecap="round" stroke-linejoin="round"/>
</g>
<defs>
<clipPath id="clip0_4002_9258">
<rect width="22" height="22" fill="white"/>
</clipPath>
</defs>
</svg>
