<svg width="20" height="20" viewBox="0 0 20 20" fill="none" xmlns="http://www.w3.org/2000/svg">
<g id=" ">
<path id="Rectangle 1003" d="M0.940567 8.23535H19.2816L19.7519 10.8089L17.4005 19.559H2.27669L1.41085 14.9266L0 9.77948L0.940567 8.23535Z" fill="#919EAB"/>
<path id="Vector" d="M16.8276 1.38149C16.7693 1.56474 16.6751 1.70727 16.5399 1.80564C16.4098 1.90028 16.4253 1.98789 16.4845 2.12272C16.8697 2.99984 17.2541 3.87757 17.6224 4.76281C17.9113 5.45709 18.1145 6.18146 18.2458 6.93C18.2974 7.22399 18.3554 7.51632 18.3865 7.81368C18.4009 7.95138 18.4596 8.00221 18.5972 8.00503C18.8463 8.01013 19.0983 7.953 19.3454 8.04118C19.7483 8.18496 19.997 8.53631 19.9987 8.98835C20.0013 9.65769 19.9992 10.3271 19.9997 10.9964C20.0001 11.4031 19.8375 11.7103 19.4969 11.8957C19.3884 11.9548 19.3351 12.031 19.3158 12.1539C19.0791 13.66 18.8336 15.1645 18.6048 16.6718C18.478 17.5072 18.355 18.3431 18.2052 19.1741C18.115 19.6746 17.7438 19.9991 17.2647 19.9992C12.4217 20.0003 7.57877 20.0003 2.73583 19.9988C2.20555 19.9986 1.85969 19.6441 1.76271 19.0254C1.49122 17.2936 1.21753 15.5622 0.944959 13.8306C0.85806 13.2785 0.771334 12.7265 0.68594 12.1741C0.66658 12.0489 0.622272 11.9605 0.503392 11.8959C0.171847 11.7156 0.00130102 11.4171 0.00087427 11.0163C0.000154848 10.3406 -0.00081775 9.66485 0.00121776 8.98913C0.00293032 8.42065 0.419359 7.99052 0.953364 7.99799C1.16863 8.00101 1.38406 7.99447 1.59923 8.00008C1.70604 8.00286 1.77954 7.95079 1.84974 7.87568C2.48729 7.19346 3.12666 6.51318 3.76381 5.83054C4.23142 5.32953 4.52363 5.32742 4.98904 5.82596C5.16207 6.01131 5.33873 6.19291 5.50897 6.38109C5.58526 6.46543 5.64435 6.48338 5.73073 6.39049C6.14321 5.94689 6.55944 5.50724 6.97678 5.0688C7.05988 4.9815 7.09195 4.88415 7.0879 4.76083C7.06853 4.1712 7.20824 3.61225 7.39342 3.06449C7.486 2.79062 7.58602 2.72384 7.85643 2.76088C8.66634 2.87182 9.40178 3.16051 9.96845 3.8196C10.0878 3.95844 10.1797 4.12413 10.2927 4.28995C10.4357 4.18816 10.572 4.08671 10.7124 3.99231C10.942 3.8379 11.1974 3.74523 11.4539 3.6577C11.5576 3.62229 11.628 3.5623 11.6743 3.45402C11.8701 2.99591 12.0688 2.53916 12.2729 2.08522C12.3269 1.96514 12.3064 1.89765 12.2073 1.81464C11.8773 1.53822 11.7689 1.08893 11.913 0.661061C12.0413 0.280374 12.4052 0.0110786 12.8023 0.0104261C13.82 0.0087539 14.8384 0.0341969 15.855 0.000506177C16.4578 -0.0194662 17.0574 0.553508 16.8276 1.38149ZM15.9456 19.2893C16.3527 19.2893 16.7598 19.2902 17.1669 19.2888C17.4433 19.2878 17.5279 19.2176 17.5762 18.922C17.6548 18.4398 17.7223 17.9557 17.7975 17.4729C17.9609 16.4255 18.1257 15.3783 18.2909 14.3312C18.4323 13.4345 18.5756 12.5382 18.7166 11.6415C18.746 11.4547 18.847 11.3493 19.0185 11.3104C19.2796 11.251 19.3348 11.1789 19.3353 10.8945C19.3364 10.308 19.3361 9.72152 19.3354 9.13501C19.3349 8.79964 19.2426 8.70264 18.929 8.70267C12.9723 8.70339 7.01572 8.70405 1.05908 8.70473C0.759114 8.70477 0.665174 8.80409 0.664368 9.12993C0.662981 9.69094 0.663639 10.2519 0.664052 10.8129C0.664357 11.229 0.73583 11.3056 1.12194 11.3056C5.77951 11.3055 10.4371 11.3053 15.0947 11.3054C15.1724 11.3054 15.251 11.3016 15.3278 11.3119C15.5193 11.3375 15.6537 11.5002 15.6445 11.6861C15.6354 11.869 15.4807 12.0154 15.2898 12.0178C14.9431 12.0221 14.5964 12.027 14.2496 12.0271C11.4666 12.028 8.68353 12.0278 5.90048 12.0278C4.66168 12.0279 3.42289 12.0283 2.18409 12.0272C1.95087 12.027 1.71765 12.0207 1.48444 12.017C1.38708 12.0154 1.34121 12.0561 1.35927 12.168C1.4968 13.0202 1.63343 13.8726 1.76828 14.7253C1.89526 15.5281 2.01927 16.3314 2.14545 17.1344C2.241 17.7425 2.33452 18.3509 2.43577 18.9579C2.47922 19.2183 2.56557 19.2848 2.817 19.2889C2.87087 19.2898 2.92476 19.2892 2.97864 19.2892C7.28899 19.2893 11.5993 19.2893 15.9456 19.2893ZM12.8309 4.25201C11.9833 4.11464 11.2523 4.38052 10.6095 4.9686C10.4896 5.07831 10.4356 5.19527 10.4409 5.36377C10.4578 5.89976 10.3511 6.41402 10.1646 6.90891C10.0434 7.23058 9.9288 7.29019 9.60597 7.22657C9.48855 7.20343 9.36989 7.1821 9.25608 7.14504C9.1361 7.10596 9.02236 7.11085 8.90452 7.14817C8.63163 7.23459 8.38077 7.36598 8.16494 7.56456C8.04569 7.67427 7.94463 7.8022 7.86544 7.95089C7.94479 8.00875 8.00569 7.9992 8.06429 7.9992C8.83522 7.99922 9.60616 7.99829 10.3771 7.99839C12.0702 7.99861 13.7633 7.99968 15.4564 7.99919C15.6506 7.99914 15.6588 7.97947 15.6178 7.77426C15.501 7.19013 15.2996 6.63856 15.0264 6.12044C14.5388 5.19583 13.8656 4.50641 12.8309 4.25201ZM17.6753 7.58228C17.5712 6.92203 17.4387 6.26706 17.2198 5.63976C16.809 4.46206 16.2553 3.35067 15.7813 2.20209C15.7316 2.08172 15.6542 2.0537 15.5408 2.05434C14.8885 2.05802 14.2342 2.08809 13.5844 2.04474C13.1638 2.01669 12.9179 2.14021 12.7897 2.57785C12.7003 2.88314 12.5519 3.16884 12.426 3.47265C12.4741 3.48373 12.4967 3.49219 12.5198 3.49379C13.5459 3.5651 14.369 4.06089 15.0304 4.87616C15.7158 5.72098 16.1052 6.72038 16.3202 7.80127C16.3534 7.96779 16.4227 8.00513 16.5628 8.00141C16.8319 7.99426 17.1014 8.00012 17.3707 7.99919C17.7411 7.99791 17.7411 7.99736 17.6753 7.58228ZM7.84615 5.23682C7.95375 5.56897 8.15337 5.82056 8.42637 6.01576C8.74047 6.24035 9.09239 6.35645 9.45288 6.45579C9.56284 6.48609 9.60198 6.43816 9.63087 6.33541C9.69801 6.09653 9.74527 5.85244 9.76591 5.60609C9.81468 5.02402 9.73243 4.48508 9.26754 4.09017C8.91737 3.7927 8.51204 3.6323 8.08091 3.52992C7.99985 3.51067 7.95216 3.53458 7.92953 3.61528C7.78287 4.13854 7.67221 4.66442 7.84615 5.23682ZM5.78051 7.367C5.60649 7.56024 5.41072 7.73271 5.24732 7.96018C5.29743 7.97808 5.31953 7.99278 5.34171 7.9929C5.87395 7.99579 6.40619 7.99715 6.93844 7.99872C6.99751 7.99889 7.04301 7.97132 7.07158 7.91716C7.33307 7.42153 7.66464 6.99433 8.15623 6.69148C7.79167 6.44866 7.51323 6.15037 7.29025 5.73813C6.77977 6.28891 6.28908 6.81835 5.78051 7.367ZM14.8679 1.34669C15.209 1.3463 15.5502 1.35085 15.8911 1.34354C16.0775 1.33954 16.2139 1.19466 16.2115 1.02686C16.2092 0.85937 16.0846 0.72539 15.9007 0.724622C14.8834 0.720374 13.8661 0.721691 12.8488 0.723551C12.7368 0.723756 12.6364 0.764437 12.5746 0.874412C12.4481 1.09999 12.5977 1.34231 12.8752 1.3445C13.5274 1.34966 14.1797 1.34648 14.8679 1.34669ZM5.08262 7.09218C5.13189 7.04472 5.13555 6.9992 5.08498 6.94715C4.84946 6.7047 4.61536 6.4607 4.41089 6.24854C3.86799 6.82947 3.32814 7.40713 2.79558 7.977C2.84207 7.98046 2.9193 7.99604 2.99507 7.99015C3.34206 7.96322 3.68864 7.99298 4.03513 7.99859C4.16761 8.00074 4.2642 7.96211 4.35382 7.86555C4.58925 7.61188 4.82833 7.36204 5.08262 7.09218Z" fill="#637381"/>
<path id="Vector_2" d="M8.41952 18.6634C6.77377 18.6634 5.14598 18.6637 3.5182 18.663C3.24578 18.6628 3.11516 18.536 3.1264 18.2893C3.13471 18.1069 3.24371 17.9787 3.41586 17.9588C3.49285 17.9499 3.57126 17.9539 3.64903 17.9539C7.06618 17.9538 10.4833 17.9539 13.9005 17.9542C13.9663 17.9542 14.0329 17.9506 14.0977 17.9602C14.2733 17.9862 14.401 18.1526 14.3909 18.3342C14.3809 18.5143 14.2534 18.6475 14.0748 18.6613C14.0212 18.6654 13.9672 18.6631 13.9133 18.6631C12.088 18.6632 10.2628 18.6633 8.41952 18.6634Z" fill="#637381"/>
<path id="Vector_3" d="M16.4458 11.9994C16.2798 11.9091 16.1914 11.7835 16.2295 11.593C16.2653 11.4133 16.3993 11.3097 16.6042 11.3074C16.9921 11.3031 17.3801 11.3025 17.7679 11.3079C17.9909 11.311 18.1292 11.4553 18.1297 11.6661C18.1302 11.8835 18.0015 12.0038 17.765 12.0111C17.3298 12.0245 16.8946 12.0519 16.4458 11.9994Z" fill="#637381"/>
<path id="Vector_4" d="M15.9637 18.6637C15.7366 18.6636 15.5274 18.6671 15.3184 18.6622C15.1097 18.6574 14.9874 18.5303 14.9826 18.3246C14.9776 18.1106 15.1025 17.9604 15.311 17.9571C15.7231 17.9506 16.1355 17.9512 16.5477 17.9577C16.7557 17.961 16.8806 18.1117 16.8744 18.3266C16.8685 18.5344 16.7495 18.6564 16.5373 18.6619C16.3522 18.6668 16.1669 18.6634 15.9637 18.6637Z" fill="#637381"/>
<path id="Vector_5" d="M12.7299 13.9048C12.6046 14.0209 12.4802 14.053 12.3415 13.9669C12.2076 13.8837 12.1634 13.7576 12.1701 13.5967C12.1787 13.3871 12.1718 13.1768 12.1788 12.967C12.1847 12.7921 12.2771 12.6804 12.4356 12.6463C12.5864 12.6139 12.736 12.6704 12.7753 12.824C12.8662 13.1793 12.9052 13.5437 12.7299 13.9048Z" fill="#637381"/>
<path id="Vector_6" d="M2.48477 13.408C2.48499 13.2624 2.4812 13.1353 2.48641 13.0086C2.49519 12.7954 2.63939 12.6402 2.82255 12.6395C3.01331 12.6388 3.14596 12.7852 3.14959 13.009C3.1531 13.2247 3.15405 13.4406 3.14918 13.6563C3.14456 13.8609 3.00561 14.0131 2.82904 14.0188C2.65749 14.0242 2.50325 13.8713 2.48752 13.674C2.48099 13.5921 2.48539 13.5091 2.48477 13.408Z" fill="#637381"/>
<path id="Vector_7" d="M16.8497 13.5553C16.8499 13.3531 16.8457 13.1688 16.8515 12.9849C16.858 12.7846 16.9889 12.6453 17.1648 12.6392C17.3408 12.6331 17.5042 12.7806 17.5133 12.9744C17.5236 13.1897 17.5191 13.406 17.5159 13.6217C17.5126 13.8507 17.3766 14.0095 17.1848 14.017C16.9981 14.0243 16.8623 13.8677 16.8502 13.6306C16.8492 13.6116 16.8498 13.5925 16.8497 13.5553Z" fill="#637381"/>
<path id="Vector_8" d="M11.2569 13.761C11.1766 13.9528 11.0523 14.0467 10.8675 14.0086C10.6998 13.9739 10.6051 13.8248 10.6023 13.6092C10.5998 13.4124 10.5981 13.2153 10.603 13.0185C10.6086 12.7949 10.7575 12.636 10.9487 12.6396C11.1288 12.6429 11.2665 12.803 11.268 13.0216C11.2697 13.2628 11.2639 13.5041 11.2569 13.761Z" fill="#637381"/>
<path id="Vector_9" d="M8.731 13.0742C8.7428 12.7927 8.87362 12.634 9.07452 12.6397C9.27208 12.6452 9.39824 12.8135 9.3997 13.0769C9.40076 13.2672 9.40293 13.4577 9.39772 13.6478C9.39192 13.8592 9.2439 14.019 9.06358 14.0185C8.88287 14.0179 8.73916 13.8597 8.73289 13.644C8.72754 13.4602 8.73126 13.2761 8.731 13.0742Z" fill="#637381"/>
<path id="Vector_10" d="M15.5538 14.0083C15.3601 13.935 15.2782 13.7942 15.2784 13.5939C15.2786 13.4027 15.2741 13.2113 15.2796 13.0203C15.2861 12.7943 15.434 12.6361 15.6258 12.6391C15.8164 12.642 15.9375 12.7876 15.9397 13.0215C15.9416 13.2255 15.9423 13.4295 15.9394 13.6334C15.9358 13.8874 15.8175 14.0056 15.5538 14.0083Z" fill="#637381"/>
<path id="Vector_11" d="M4.47753 12.6546C4.65895 12.7394 4.72764 12.8809 4.72392 13.0719C4.72033 13.2565 4.72608 13.4413 4.71982 13.6257C4.71215 13.8517 4.56304 14.018 4.37903 14.0166C4.18995 14.0153 4.06316 13.8564 4.06073 13.6135C4.05881 13.4225 4.05895 13.2315 4.06061 13.0406C4.06317 12.747 4.1862 12.6286 4.47753 12.6546Z" fill="#637381"/>
<path id="Vector_12" d="M7.79113 12.8287C7.88234 13.1492 7.8452 13.4606 7.81145 13.7681C7.79445 13.9229 7.61639 14.0318 7.47081 14.0157C7.31502 13.9984 7.18807 13.8572 7.18315 13.6804C7.17714 13.4643 7.18393 13.2478 7.17936 13.0316C7.17557 12.8524 7.23749 12.7182 7.40076 12.6599C7.5634 12.6018 7.69329 12.6603 7.79113 12.8287Z" fill="#637381"/>
<path id="Vector_13" d="M14.0598 14.0146C13.8029 13.9474 13.7282 13.8504 13.7255 13.5903C13.7235 13.3937 13.721 13.1969 13.7265 13.0004C13.7326 12.7823 13.8745 12.6361 14.0653 12.6402C14.2392 12.6439 14.384 12.798 14.3906 13.0001C14.397 13.1965 14.3938 13.3933 14.3922 13.5899C14.3901 13.8531 14.3178 13.9478 14.0598 14.0146Z" fill="#637381"/>
<path id="Vector_14" d="M6.20754 13.8738C6.0863 14.0021 5.95952 14.0557 5.80813 13.9784C5.65403 13.8997 5.60202 13.7617 5.60701 13.5861C5.61245 13.3951 5.60404 13.2037 5.60972 13.0127C5.61616 12.7962 5.76183 12.639 5.94443 12.6401C6.12933 12.6411 6.28119 12.7987 6.27174 13.0141C6.25935 13.2967 6.33548 13.587 6.20754 13.8738Z" fill="#637381"/>
</g>
</svg>
