<svg width="22" height="22" viewBox="0 0 22 22" fill="none" xmlns="http://www.w3.org/2000/svg">
<path d="M8.54558 12.6257L8.28941 12.3056L8.54558 12.6257C9.33015 11.998 10.155 11.6477 11.1145 11.6807C11.7611 11.703 12.3474 11.9252 12.9304 12.288C12.9429 12.2958 12.9569 12.3047 12.9721 12.3144C13.0618 12.3713 13.1962 12.4567 13.3443 12.5179L13.9192 11.7355C13.6554 11.4194 13.3542 11.1577 13.0405 10.931C13.9392 9.73338 15.1005 9.069 16.554 9.04615C18.2918 9.01882 19.7319 10.0418 20.357 11.8704C20.942 13.5816 20.342 15.4216 19.1448 16.3709C18.6526 16.7611 18.0675 16.9725 17.4057 17.1016C16.581 17.2626 15.737 17.2801 14.8714 17.2229L14.8384 17.7218L14.8714 17.2229C14.5237 17.1999 14.2117 17.3272 14.0221 17.4046C14.0024 17.4126 13.9839 17.4201 13.9669 17.4269C13.6779 17.5417 13.4078 17.6568 13.1443 17.769C12.7358 17.9431 12.3433 18.1104 11.9209 18.259C10.8599 18.6324 9.76763 18.7957 8.64097 18.739C8.05398 18.7096 7.4931 18.6797 6.94198 18.6L6.87046 19.0949L6.94197 18.6C5.35742 18.3711 3.9347 18.0657 2.80046 17.0427C2.57386 16.8383 2.44486 16.6444 2.38238 16.4494C2.32057 16.2565 2.31012 16.0198 2.39155 15.7055C2.47721 15.3749 2.55366 15.0413 2.62833 14.7155C2.63969 14.6659 2.65101 14.6166 2.66231 14.5674C2.74867 14.1918 2.83479 13.8259 2.93553 13.4662C3.38293 11.8688 4.09829 10.4041 5.05303 9.05611L4.64501 8.76712L5.05303 9.05611C5.99448 7.7269 6.91835 6.38647 7.83707 5.04502C8.21209 4.49744 8.58664 4.07423 9.09762 3.85638C9.37384 3.73862 9.64595 3.68219 9.96744 3.61553C10.1082 3.58634 10.2585 3.55519 10.4227 3.51606C11.1857 3.33425 11.972 3.26479 12.7836 3.25035C12.9633 3.24715 13.0686 3.26646 13.1384 3.29626C13.1956 3.32066 13.2592 3.36444 13.3296 3.47967L13.7543 3.22003L13.3296 3.47967C13.5218 3.79394 13.7416 4.10854 13.9505 4.40748C14.0554 4.55759 14.1576 4.70376 14.2521 4.84394L14.6667 4.56449L14.2521 4.84394C14.3194 4.94379 14.3277 4.99322 14.3284 5.00629C14.3232 5.01801 14.2978 5.06242 14.1964 5.13401C13.5941 5.55916 12.9635 5.78485 12.264 5.76188C12.2597 5.76173 12.2541 5.76151 12.2475 5.76124C12.2131 5.75985 12.1503 5.75731 12.0931 5.7594C12.0204 5.76205 11.9095 5.77236 11.7923 5.82063C11.7134 5.85311 11.6778 5.84555 11.6632 5.84147C11.6416 5.83544 11.5935 5.81417 11.5219 5.73533L11.1518 6.07161L11.5219 5.73533C11.2276 5.41158 10.8603 5.45509 10.6939 5.48037C10.4108 5.52339 10.1557 5.53082 9.92102 5.4834C9.70556 5.43986 9.46779 5.44719 9.24618 5.57363C9.03618 5.69344 8.91201 5.88062 8.83176 6.04332C8.34304 7.03415 7.95105 8.06045 7.63778 9.14193C7.45765 9.67211 7.33417 10.2176 7.35373 10.8098C7.37288 11.3897 7.3842 11.8911 7.24429 12.4L7.04903 13.1103L7.7812 13.0295C8.1738 12.9862 8.44882 12.7191 8.52631 12.6439C8.53565 12.6348 8.54212 12.6285 8.54558 12.6257ZM12.8598 10.8037C12.8599 10.8037 12.8614 10.8049 12.8638 10.8072C12.8609 10.8049 12.8597 10.8038 12.8598 10.8037ZM12.9157 11.1036C12.915 11.105 12.9146 11.1057 12.9145 11.1057C12.9145 11.1057 12.9149 11.105 12.9157 11.1036ZM14.3283 5.00991C14.3282 5.0099 14.3282 5.00922 14.3284 5.00792C14.3284 5.00927 14.3283 5.00992 14.3283 5.00991ZM14.329 5.00467C14.3293 5.00367 14.3295 5.00317 14.3295 5.00318L14.329 5.00467Z" fill="#919EAB" fill-opacity="0.48" stroke="#637381"/>
</svg>
