<svg xmlns="http://www.w3.org/2000/svg" width="20" height="20" viewBox="0 0 20 20" fill="none">
  <path d="M13.4903 13.5368C12.5805 13.5381 11.8347 12.7699 11.8842 11.8518C11.9297 11.005 12.6232 10.3062 13.4892 10.3096C14.3456 10.3129 15.0728 11.0213 15.0865 11.8656C15.1018 12.8048 14.4417 13.5061 13.4903 13.5368ZM12.8716 12.3756C13.1829 12.7295 13.626 12.788 13.9526 12.5184C14.267 12.2588 14.3339 11.8092 14.1055 11.4905C13.8664 11.1568 13.4229 11.0727 13.0697 11.2941C12.7207 11.5128 12.6308 11.9439 12.8716 12.3756Z" fill="#637381"/>
  <path d="M10.2378 10.9125C9.92842 11.618 9.30303 12.0106 8.60276 11.9544C7.90784 11.8985 7.33887 11.4064 7.16225 10.7083C6.94931 9.86673 7.47966 9.0024 8.34911 8.77403C9.18568 8.5543 10.0703 9.08905 10.2936 9.94546C10.3778 10.2682 10.3624 10.5827 10.2378 10.9125ZM9.27638 9.81553C8.89575 9.50149 8.51782 9.4933 8.20621 9.79233C7.93258 10.0549 7.89824 10.502 8.1282 10.8078C8.36603 11.1242 8.84987 11.1988 9.17307 10.9612C9.44292 10.7628 9.66831 10.2947 9.27638 9.81553Z" fill="#637381"/>
  <path d="M12.9025 15.3893C13.3806 16.4206 12.9624 17.6331 11.9849 18.0907C10.9492 18.5756 9.78284 18.1545 9.28062 17.1145C8.81683 16.154 9.236 14.9848 10.2248 14.4809C11.1928 13.9877 12.3829 14.3848 12.9025 15.3893ZM10.9129 15.1471C10.2497 15.2625 9.92792 15.8112 9.95217 16.3412C9.98366 17.0293 10.5516 17.4847 11.2571 17.4263C11.868 17.3756 12.318 16.7825 12.2506 16.1166C12.1894 15.5121 11.6016 15.0677 10.9129 15.1471Z" fill="#637381"/>
  <path d="M5.37301 19.0786C4.1632 19.1146 3.2741 18.3598 3.16794 17.2285C3.07598 16.2484 3.76 15.3302 4.74052 15.1176C5.73167 14.9027 6.68867 15.455 7.05311 16.3795C7.48167 17.4668 6.78447 18.8915 5.37301 19.0786ZM4.65468 18.1101C5.21173 18.3303 5.73999 18.2115 6.07321 17.7911C6.39054 17.3907 6.41126 16.8347 6.12418 16.4235C5.84599 16.0251 5.35949 15.8293 4.90013 15.9485C4.44289 16.0672 4.14338 16.3657 4.04163 16.8245C3.92433 17.3535 4.13781 17.7889 4.65468 18.1101Z" fill="#637381"/>
  <path d="M1.78892 9.93856C2.84971 9.93181 3.51894 10.3423 3.86924 11.1993C4.27312 12.1874 3.76767 13.3849 2.77922 13.7816C1.74074 14.1985 0.558471 13.7131 0.152369 12.7031C-0.351821 11.4492 0.4468 10.0803 1.78892 9.93856ZM1.28937 11.0168C0.87931 11.3783 0.745055 11.8418 0.914523 12.3108C1.07537 12.756 1.51225 13.0786 1.97351 13.0926C2.44263 13.107 2.88928 12.8036 3.08052 12.3409C3.26526 11.8938 3.12448 11.3659 2.73208 11.0341C2.3432 10.7052 1.81267 10.6906 1.28937 11.0168Z" fill="#637381"/>
  <path d="M16.4136 13.9841C17.7953 13.5772 19.0918 14.5619 19.056 15.969C19.0293 17.0234 18.0829 17.9204 17.0181 17.9005C15.9388 17.8803 15.0554 16.9987 15.0513 15.9377C15.0477 14.9987 15.5157 14.3209 16.4136 13.9841ZM15.9057 16.106C16.1061 16.8002 16.6741 17.1642 17.3185 17.0113C17.9463 16.8624 18.3159 16.2286 18.1533 15.5799C18.0023 14.9776 17.3558 14.5964 16.7549 14.7668C16.2496 14.91 15.8242 15.3421 15.9057 16.106Z" fill="#637381"/>
  <path d="M1.5 1.5L4 0.5L5.5 1.5L8.5 3.5L9.5 4.5L8 7L5.5 8.5L0.5 4L1.5 1.5Z" fill="#919EAB"/>
  <path d="M17.5 1.5L15.5 0L14 1L11 3L9.5 5L11.5 6.5L13.5 9L18.5 3.5L17.5 1.5Z" fill="#919EAB"/>
  <path d="M14.2425 0.256128C16.0212 -0.450117 17.9678 0.516952 18.4909 2.26462C18.8346 3.41269 18.6461 4.50312 17.7995 5.36018C16.5067 6.66901 15.1475 7.91241 13.8103 9.1771C13.517 9.45446 13.3352 9.43947 13.0468 9.15171C11.9478 8.0552 10.8513 6.9562 9.7535 5.85853C9.68251 5.78755 9.60811 5.71999 9.54116 5.6564C9.41511 5.68848 9.35882 5.77964 9.28887 5.84943C8.19568 6.94004 7.10462 8.03278 6.01235 9.1243C5.68605 9.45038 5.50283 9.45329 5.17128 9.13802C3.91725 7.94554 2.66241 6.75391 1.41061 5.55909C-0.305667 3.92094 0.201712 1.14179 2.40196 0.256134C3.61987 -0.234104 4.76991 -0.0150295 5.73906 0.865401C6.93169 1.94886 8.08216 3.07876 9.25027 4.18919C9.51241 4.43839 9.51366 4.44203 9.77843 4.19127C10.8932 3.13549 12.0098 2.08166 13.1182 1.01914C13.447 0.703905 13.803 0.438644 14.2425 0.256128ZM6.27314 7.65193C7.14115 6.78585 8.00917 5.91977 8.89543 5.03549C8.57091 4.72625 8.27202 4.44081 7.97247 4.15608C7.0447 3.27423 6.11967 2.38947 5.1875 1.51229C4.70845 1.06148 4.12344 0.817696 3.47368 0.872265C2.45873 0.957504 1.71101 1.47783 1.37393 2.46016C1.04099 3.43041 1.30575 4.27752 2.03961 4.98194C2.51656 5.43974 2.99795 5.89292 3.47761 6.3479C4.11716 6.95456 4.75925 7.55858 5.39484 8.16937C5.53091 8.30012 5.6314 8.32533 5.76642 8.1667C5.91432 7.99292 6.08587 7.83927 6.27314 7.65193ZM10.3922 4.79157C10.3249 4.87653 10.2171 4.92724 10.1786 5.03961C10.191 5.06311 10.1982 5.08978 10.2151 5.10674C11.2458 6.13947 12.2784 7.17024 13.3069 8.20507C13.4218 8.32059 13.5017 8.29167 13.604 8.1944C14.7719 7.08386 15.9538 5.98769 17.107 4.86209C17.7637 4.22109 17.9541 3.4068 17.6836 2.54121C17.1473 0.825469 15.1117 0.318171 13.7904 1.55639C12.6579 2.61772 11.5411 3.69588 10.3922 4.79157Z" fill="#637381"/>
  <path d="M16.1236 1.90277C16.2718 1.95044 16.4018 1.98613 16.5055 2.08249C16.6751 2.2401 16.7254 2.4773 16.6101 2.65552C16.4787 2.85881 16.2825 2.89063 16.0757 2.80539C15.655 2.63196 15.2414 2.63305 14.8214 2.80324C14.587 2.89825 14.3785 2.83271 14.2672 2.64429C14.151 2.44753 14.195 2.21406 14.4116 2.06601C14.7624 1.82629 15.1704 1.80016 15.5787 1.81635C15.7545 1.82332 15.9287 1.86921 16.1236 1.90277Z" fill="#637381"/>
  <path d="M3.6068 2.68436C3.36131 2.67704 3.15085 2.70931 2.94341 2.80425C2.71581 2.90841 2.48606 2.81745 2.37969 2.61359C2.27705 2.41686 2.32884 2.20323 2.53749 2.06034C2.83519 1.85649 3.18535 1.82044 3.53092 1.81133C3.82578 1.80356 4.11932 1.85399 4.40237 1.94899C4.49296 1.9794 4.5701 2.02887 4.63851 2.0927C4.81306 2.2556 4.8553 2.48803 4.73307 2.66505C4.59641 2.86298 4.39974 2.8905 4.19473 2.80239C4.01177 2.72376 3.82786 2.67842 3.6068 2.68436Z" fill="#637381"/>
</svg>