<svg xmlns="http://www.w3.org/2000/svg" width="20" height="14" viewBox="0 0 20 14" fill="none">
  <path fill-rule="evenodd" clip-rule="evenodd" d="M2.70722 5.42468H17.341C17.5686 5.42468 17.7532 5.60958 17.7532 5.83446C17.7532 6.05933 17.5686 6.24173 17.341 6.24173H17.2803V7.00132H19.2249C19.5966 7.00132 19.9001 7.30365 19.9001 7.67095C19.9001 8.04074 19.5966 8.34058 19.2249 8.34058H17.2803V11.4888C17.2803 12.7706 16.2183 13.8201 14.921 13.8201H5.06906C3.76929 13.8201 2.70722 12.7706 2.70722 11.4888V8.34058H0.777799C0.406074 8.34058 0.100098 8.04074 0.100098 7.67095C0.100098 7.30365 0.406074 7.00132 0.777799 7.00132H2.70722V6.24173C2.48217 6.24173 2.29504 6.05933 2.29504 5.83446C2.29504 5.60958 2.48217 5.42468 2.70722 5.42468Z" fill="#637381"/>
  <path fill-rule="evenodd" clip-rule="evenodd" d="M2.61373 4.3753H3.0512C3.45327 3.14347 6.42201 2.09155 10.0255 2.09155C13.6264 2.09155 16.5951 3.14347 16.9997 4.3753H17.4043C17.5661 4.3753 17.7002 4.50772 17.7002 4.66764C17.7002 4.82755 17.5661 4.95998 17.4043 4.95998H2.61373C2.45189 4.95998 2.31787 4.82755 2.31787 4.66764C2.31787 4.50772 2.45189 4.3753 2.61373 4.3753Z" fill="#637381"/>
  <path fill-rule="evenodd" clip-rule="evenodd" d="M9.9825 0.180054C11.1457 0.180054 12.0889 0.992107 12.0889 1.99655C12.0889 2.06901 12.0839 2.13898 12.0763 2.20894C11.7299 2.16896 11.3733 2.13648 11.0092 2.11649C10.9965 1.63675 10.5414 1.25196 9.9825 1.25196C9.42112 1.25196 8.96342 1.63925 8.95583 2.12149C8.58917 2.14397 8.23514 2.17646 7.88871 2.21893C7.87859 2.14647 7.87354 2.07151 7.87354 1.99655C7.87354 0.992107 8.81675 0.180054 9.9825 0.180054Z" fill="#637381"/>
</svg>