<?xml version="1.0" encoding="iso-8859-1"?>
<!-- Generator: Adobe Illustrator 19.0.0, SVG Export Plug-In . SVG Version: 6.00 Build 0)  -->
<svg version="1.1" id="Capa_1" xmlns="http://www.w3.org/2000/svg" xmlns:xlink="http://www.w3.org/1999/xlink" x="0px" y="0px"
	 viewBox="0 0 480 480" style="enable-background:new 0 0 480 480;" xml:space="preserve">
<g>
	<g>
		<rect x="64" y="360" width="16" height="88"/>
	</g>
</g>
<g>
	<g>
		<rect x="96" y="376" width="16" height="72"/>
	</g>
</g>
<g>
	<g>
		<rect x="32" y="376" width="16" height="72"/>
	</g>
</g>
<g>
	<g>
		<path d="M432,232v-16v-96V88V72h40c4.416,0,8-3.584,8-8V40c0-22.056-17.944-40-40-40H40C17.944,0,0,17.944,0,40v24
			c0,4.416,3.584,8,8,8h32v16v32v96v16c0,7.064,3.128,13.36,8,17.76V320h-8c-22.056,0-40,17.944-40,40v96c0,13.232,10.768,24,24,24
			h96c13.232,0,24-10.768,24-24v-96c0-22.056-17.944-40-40-40h-8v-70.24c4.872-4.392,8-10.696,8-17.76v-16v-96V88V72h96v16v32v96v16
			c0,7.064,3.128,13.36,8,17.76v58.368c-28.816,10.264-48,39.016-48,75.872c0,45.408,29.568,96,72,96s72-50.592,72-96
			c0-36.856-19.184-65.616-48-75.872V249.76c4.872-4.392,8-10.696,8-17.76v-16v-96V88V72h104v16v32v96v16
			c0,7.064,3.128,13.36,8,17.76v89.56c-32.424,9.2-56,36.504-56,68.68c0,39.696,35.888,72,80,72s80-32.304,80-72
			c0-32.176-23.576-59.48-56-68.68v-89.56C428.872,245.368,432,239.064,432,232z M104,336c13.232,0,24,10.768,24,24v96
			c0,4.408-3.592,8-8,8H24c-4.408,0-8-3.592-8-8v-96c0-13.232,10.768-24,24-24h16h32H104z M88,96v16H56V96H88z M56,80V64
			c0-8.824,7.176-16,16-16s16,7.176,16,16v16H56z M88,128v80H56v-80H88z M88,224v8c0,3.08-1.808,5.68-4.368,7.016
			c-0.36,0.192-0.72,0.336-1.08,0.464C81.736,239.76,80.904,240,80,240H64c-0.904,0-1.736-0.24-2.552-0.52
			c-0.36-0.136-0.728-0.28-1.08-0.464C57.808,237.68,56,235.08,56,232v-8H88z M80,256v64H64v-64H80z M288,384
			c0,41.864-26.688,80-56,80s-56-38.136-56-80c0-31.976,16.608-55.696,41.776-62.168c0.072-0.016,0.144,0.016,0.216-0.008
			c9.4-2.424,18.608-2.424,28.008,0c0.128,0.032,0.256,0.024,0.384,0.048C271.456,328.408,288,352.096,288,384z M248,96v16h-32V96
			H248z M216,80V64c0-8.824,7.176-16,16-16c8.824,0,16,7.176,16,16v16H216z M248,128v80h-32v-80H248z M248,224v8
			c0,3.08-1.808,5.68-4.368,7.016c-0.36,0.192-0.72,0.336-1.08,0.464c-0.816,0.28-1.648,0.52-2.552,0.52h-16
			c-0.904,0-1.736-0.24-2.552-0.52c-0.36-0.136-0.728-0.28-1.08-0.464C217.808,237.68,216,235.08,216,232v-8H248z M240,256v48.44
			c-2.616-0.28-5.28-0.44-8-0.44c-2.72,0-5.384,0.16-8,0.44V256H240z M464,408c0,30.88-28.712,56-64,56c-35.288,0-64-25.12-64-56
			c0-26.544,21.232-48.784,49.608-54.52c9.744-1.96,19.048-1.96,28.784,0C442.768,359.216,464,381.456,464,408z M416,96v16h-32V96
			H416z M384,80V64c0-8.824,7.176-16,16-16c8.824,0,16,7.176,16,16v16H384z M416,128v80h-32v-80H416z M416,224v8
			c0,3.08-1.808,5.68-4.368,7.016c-0.36,0.192-0.72,0.336-1.08,0.464c-0.816,0.28-1.648,0.52-2.552,0.52h-16
			c-0.904,0-1.736-0.24-2.552-0.52c-0.36-0.136-0.728-0.28-1.08-0.464C385.808,237.68,384,235.08,384,232v-8H416z M408,256v80.368
			c-2.632-0.24-5.296-0.368-8-0.368c-2.704,0-5.368,0.128-8,0.368V256H408z M423.008,41.848c-0.464-0.48-0.976-0.912-1.472-1.36
			c-0.92-0.84-1.864-1.64-2.872-2.376c-0.592-0.424-1.2-0.816-1.816-1.208c-1.032-0.648-2.104-1.216-3.208-1.744
			c-0.656-0.312-1.304-0.624-1.984-0.888c-1.224-0.48-2.496-0.848-3.792-1.176c-0.616-0.16-1.216-0.36-1.848-0.48
			C404.048,32.232,402.056,32,400,32c-2.056,0-4.048,0.232-6,0.608c-0.632,0.12-1.224,0.328-1.848,0.48
			c-1.296,0.328-2.56,0.696-3.792,1.176c-0.68,0.264-1.328,0.576-1.984,0.888c-1.104,0.528-2.176,1.096-3.208,1.744
			c-0.624,0.384-1.232,0.776-1.816,1.208c-1.016,0.728-1.96,1.528-2.872,2.376c-0.496,0.456-1.008,0.88-1.472,1.36
			c-1.04,1.08-1.968,2.24-2.848,3.456c-0.24,0.336-0.536,0.632-0.76,0.976c-1.064,1.584-1.976,3.272-2.744,5.04
			c-0.2,0.472-0.328,0.968-0.504,1.448c-0.416,1.072-0.848,2.12-1.144,3.24H262.992c-0.288-1.12-0.728-2.168-1.128-3.232
			c-0.184-0.48-0.304-0.984-0.504-1.448c-0.768-1.768-1.68-3.456-2.744-5.04c-0.232-0.344-0.52-0.64-0.76-0.976
			c-0.88-1.208-1.816-2.376-2.848-3.456c-0.464-0.48-0.976-0.912-1.472-1.36c-0.92-0.84-1.864-1.64-2.872-2.376
			c-0.592-0.424-1.2-0.816-1.816-1.208c-1.032-0.648-2.104-1.216-3.208-1.744c-0.656-0.312-1.304-0.624-1.984-0.888
			c-1.224-0.48-2.496-0.848-3.792-1.176c-0.616-0.16-1.216-0.36-1.848-0.48C236.048,32.232,234.056,32,232,32
			c-2.056,0-4.048,0.232-6,0.608c-0.632,0.12-1.224,0.328-1.848,0.48c-1.296,0.328-2.56,0.696-3.792,1.176
			c-0.68,0.264-1.328,0.576-1.984,0.888c-1.104,0.528-2.176,1.096-3.208,1.744c-0.624,0.384-1.232,0.776-1.816,1.208
			c-1.016,0.728-1.96,1.528-2.872,2.376c-0.496,0.456-1.008,0.88-1.472,1.36c-1.04,1.08-1.968,2.24-2.848,3.456
			c-0.24,0.336-0.536,0.632-0.76,0.976c-1.064,1.584-1.976,3.272-2.744,5.04c-0.2,0.472-0.328,0.968-0.504,1.448
			c-0.416,1.072-0.848,2.12-1.144,3.24h-98.016c-0.288-1.12-0.728-2.168-1.128-3.232c-0.184-0.48-0.304-0.984-0.504-1.448
			c-0.768-1.768-1.68-3.456-2.744-5.04c-0.232-0.344-0.52-0.64-0.76-0.976c-0.88-1.208-1.816-2.376-2.848-3.456
			c-0.464-0.48-0.976-0.912-1.472-1.36c-0.92-0.84-1.864-1.64-2.872-2.376c-0.592-0.424-1.2-0.816-1.816-1.208
			c-1.032-0.648-2.104-1.216-3.208-1.744c-0.656-0.312-1.304-0.624-1.984-0.888c-1.224-0.48-2.496-0.848-3.792-1.176
			c-0.616-0.16-1.216-0.36-1.848-0.48C76.048,32.232,74.056,32,72,32c-2.056,0-4.048,0.232-6,0.608
			c-0.632,0.12-1.224,0.328-1.848,0.48c-1.296,0.328-2.56,0.696-3.792,1.176c-0.672,0.272-1.32,0.584-1.976,0.896
			c-1.112,0.52-2.176,1.096-3.216,1.744c-0.616,0.384-1.224,0.776-1.816,1.2c-1.016,0.736-1.96,1.536-2.872,2.376
			c-0.496,0.456-1.008,0.88-1.48,1.36c-1.04,1.08-1.968,2.24-2.848,3.456c-0.24,0.336-0.536,0.632-0.76,0.976
			c-1.064,1.584-1.976,3.272-2.744,5.04c-0.2,0.472-0.328,0.976-0.504,1.456c-0.408,1.064-0.84,2.112-1.136,3.232H16V40
			c0-13.232,10.768-24,24-24h400c13.232,0,24,10.768,24,24v16h-33.008c-0.288-1.12-0.728-2.168-1.128-3.232
			c-0.184-0.48-0.304-0.984-0.504-1.448c-0.768-1.768-1.68-3.456-2.744-5.04c-0.232-0.344-0.52-0.64-0.76-0.976
			C424.976,44.096,424.04,42.928,423.008,41.848z"/>
	</g>
</g>
<g>
	<g>
		<path d="M232,336v16c13.232,0,24,10.768,24,24h16C272,353.944,254.056,336,232,336z"/>
	</g>
</g>
<g>
	<g>
		<path d="M416,368v16c8.824,0,16,7.176,16,16h16C448,382.352,433.648,368,416,368z"/>
	</g>
</g>
<g>
</g>
<g>
</g>
<g>
</g>
<g>
</g>
<g>
</g>
<g>
</g>
<g>
</g>
<g>
</g>
<g>
</g>
<g>
</g>
<g>
</g>
<g>
</g>
<g>
</g>
<g>
</g>
<g>
</g>
</svg>
