<svg width="22" height="16" viewBox="0 0 22 16" fill="none" xmlns="http://www.w3.org/2000/svg">
<g id="utensils">
<path id="Vector" d="M10.0906 11.8403C10.0907 13.2535 10.0906 14.6476 10.091 16.0417C10.091 16.2942 10.0919 16.295 10.343 16.2951C11.9217 16.2954 13.5004 16.295 15.0791 16.2955C15.4193 16.2957 15.4884 16.3592 15.4781 16.6956C15.4396 17.9586 14.6123 19.2564 13.2082 19.754C11.2441 20.45 9.08503 19.1687 8.76561 17.1063C8.72743 16.8598 8.71024 16.614 8.71026 16.3652C8.71055 12.7622 8.70962 9.15925 8.70899 5.55625C8.70894 5.2734 8.70896 5.27258 8.42212 5.27256C7.26993 5.27249 6.11773 5.27279 4.96554 5.27338C4.71816 5.27351 4.71202 5.28064 4.71183 5.53302C4.71114 6.4433 4.71121 7.35359 4.70927 8.26388C4.7086 8.58057 4.63817 8.65895 4.31796 8.66843C4.17292 8.67272 4.13413 8.73182 4.13444 8.86587C4.13744 10.1708 4.13825 11.4758 4.13388 12.7808C4.13337 12.9316 4.1842 12.9815 4.33306 12.9774C4.64474 12.9688 4.95684 12.9737 5.26875 12.9751C5.93242 12.978 6.41527 13.4288 6.41988 14.0933C6.4309 15.6783 6.43137 17.2635 6.41935 18.8484C6.41448 19.4909 5.92671 19.9458 5.28951 19.9469C4.34738 19.9485 3.40525 19.9487 2.46313 19.9474C1.80156 19.9464 1.30065 19.4777 1.29631 18.8182C1.28597 17.2459 1.28459 15.6735 1.29712 14.1012C1.30241 13.437 1.8024 12.9762 2.46685 12.9747C2.77241 12.974 3.07811 12.9691 3.38345 12.9773C3.52849 12.9812 3.58645 12.939 3.5859 12.7843C3.58133 11.4793 3.58246 10.1743 3.58536 8.86936C3.58565 8.73781 3.55219 8.67425 3.40459 8.66979C3.09723 8.6605 3.01435 8.56851 3.01377 8.25948C3.01208 7.34919 3.01356 6.43889 3.01363 5.52859C3.01365 5.27565 3.013 5.27516 2.75783 5.27503C2.31859 5.27481 1.87935 5.27616 1.44013 5.27418C1.13293 5.2728 1.05082 5.20553 1.04324 4.89509C1.03021 4.36087 1.01061 3.82549 1.05733 3.2921C1.12068 2.56884 1.794 1.9763 2.55092 1.97598C6.03933 1.97454 9.52775 1.97557 13.0162 1.97567C15.3078 1.97574 17.5995 1.97516 19.8912 1.97606C20.852 1.97643 21.4803 2.60625 21.481 3.56639C21.4812 4.01836 21.4816 4.47033 21.4801 4.92229C21.4793 5.17666 21.3946 5.26816 21.137 5.271C20.6724 5.27614 20.2075 5.27787 19.743 5.26915C19.5766 5.26603 19.5227 5.32067 19.5239 5.48855C19.5305 6.40517 19.527 7.32186 19.5264 8.23852C19.5261 8.57647 19.4607 8.65022 19.1191 8.66924C18.9957 8.67611 18.9541 8.72327 18.9543 8.84386C18.9569 10.1743 18.9567 11.5047 18.9546 12.8352C18.9545 12.952 18.9951 12.9996 19.1165 13.0183C20.2783 13.1972 21.2132 14.2646 21.2381 15.4518C21.2522 16.1199 21.2522 16.7887 21.239 17.4569C21.2162 18.6143 20.3696 19.6257 19.222 19.888C18.118 20.1404 16.9671 19.5997 16.4194 18.5832C16.2177 18.2088 16.12 17.8092 16.1185 17.393C16.1161 16.6871 16.0862 15.9808 16.1412 15.275C16.2262 14.1833 17.1236 13.1925 18.2075 13.0221C18.3682 12.9969 18.403 12.9308 18.4026 12.7869C18.3996 11.4883 18.3991 10.1897 18.4046 8.89109C18.4053 8.7274 18.357 8.66718 18.1876 8.66723C17.9143 8.66732 17.8315 8.56846 17.8312 8.28755C17.8302 7.35817 17.8263 6.42875 17.8335 5.49942C17.8349 5.32261 17.7774 5.27075 17.6039 5.27107C15.3122 5.27527 13.0205 5.2752 10.7289 5.26972C10.5451 5.26928 10.5059 5.34088 10.5069 5.50668C10.5125 6.42331 10.5097 7.33999 10.5087 8.25665C10.5084 8.54387 10.4788 8.59066 10.1969 8.66973C10.0671 8.70614 10.0931 8.79741 10.0929 8.88062C10.0909 9.86082 10.091 10.841 10.0906 11.8403ZM4.54664 3.11625C4.66286 3.28406 4.71382 3.46873 4.70888 3.67389C4.70231 3.94744 4.7134 4.22149 4.70376 4.49486C4.69791 4.66074 4.74057 4.72944 4.92613 4.72815C6.11637 4.71989 7.30669 4.72432 8.49699 4.72233C8.55459 4.72223 8.62519 4.75182 8.66956 4.68111C8.63391 4.58399 8.55083 4.59709 8.47674 4.59643C8.27307 4.5946 8.06936 4.59676 7.86568 4.59521C7.41052 4.59173 7.0582 4.24692 7.05658 3.8048C7.05494 3.35816 7.3951 3.01236 7.85654 3.00818C8.50572 3.00231 9.15503 3.00358 9.80424 3.0084C10.2092 3.0114 10.5076 3.3213 10.5098 3.72887C10.5113 4.00256 10.5147 4.27636 10.5087 4.54993C10.5059 4.68269 10.5571 4.72602 10.6885 4.72587C13.0055 4.72322 15.3224 4.7233 17.6394 4.72634C17.7807 4.72653 17.8308 4.67556 17.8286 4.53636C17.8233 4.21184 17.821 3.88691 17.8316 3.56261C17.8454 3.14144 18.1885 2.7957 18.596 2.77635C19.0765 2.75354 19.4251 3.02119 19.4949 3.47181C19.5497 3.82612 19.5129 4.18337 19.5179 4.53919C19.5199 4.67881 19.5676 4.72936 19.7087 4.72644C20.065 4.71906 20.4216 4.72058 20.778 4.72594C20.909 4.72791 20.96 4.68019 20.9578 4.54759C20.952 4.19759 20.9635 3.8472 20.9528 3.49744C20.9429 3.17561 20.8131 2.9064 20.5451 2.71466C20.3336 2.56341 20.0934 2.52666 19.8392 2.52677C15.4344 2.52858 11.0297 2.52825 6.62498 2.52847C5.29465 2.52854 3.96432 2.52719 2.63399 2.52983C2.05174 2.53098 1.66515 2.84034 1.60056 3.41191C1.55581 3.80797 1.58408 4.21235 1.58112 4.61302C1.58029 4.72547 1.66287 4.72377 1.74196 4.72379C2.10477 4.7239 2.46764 4.72057 2.83038 4.72589C2.96203 4.72782 3.01293 4.67718 3.01103 4.54642C3.00668 4.24733 3.00689 3.94805 3.01211 3.64897C3.01927 3.23924 3.22219 2.94064 3.56764 2.81884C3.91898 2.69498 4.26466 2.79402 4.54664 3.11625ZM5.60572 19.3062C5.79468 19.1768 5.87306 18.9982 5.87256 18.7691C5.86922 17.2361 5.87177 15.7031 5.87033 14.1701C5.86994 13.7562 5.64694 13.5283 5.23782 13.5271C4.32185 13.5244 3.40587 13.5246 2.48991 13.5277C2.08339 13.5292 1.87649 13.7362 1.87607 14.1385C1.87447 15.6778 1.87436 17.2172 1.87583 18.7565C1.87625 19.1972 2.07631 19.3936 2.51971 19.3941C3.4166 19.3952 4.31349 19.3936 5.21038 19.3953C5.33985 19.3955 5.46367 19.3792 5.60572 19.3062ZM13.2231 19.1636C14.378 18.6569 14.935 17.4673 14.8705 16.8201C14.5946 16.8201 14.3159 16.8201 14.0373 16.8201C12.5289 16.8201 11.0206 16.8199 9.51227 16.8204C9.29057 16.8205 9.26159 16.852 9.3055 17.0625C9.33526 17.2052 9.36502 17.3499 9.41578 17.4859C10.0026 19.0578 11.6317 19.7841 13.2231 19.1636ZM20.4961 18.2223C20.6001 17.9738 20.6646 17.718 20.6633 17.4457C20.6601 16.7845 20.6664 16.1233 20.6606 15.4622C20.6551 14.8361 20.3859 14.3338 19.9015 13.9488C19.6996 13.7883 19.4732 13.6627 19.1634 13.6118C19.8559 15.5216 19.8462 17.4045 19.1637 19.3235C19.805 19.1509 20.2128 18.7834 20.4961 18.2223ZM17.7623 15.0771C17.8523 14.5853 18.0153 14.1119 18.1522 13.62C18.1101 13.62 18.091 13.616 18.0742 13.6206C17.3221 13.8247 16.6833 14.6278 16.6683 15.4124C16.6557 16.0737 16.6648 16.7355 16.663 17.397C16.6618 17.8473 16.8136 18.2495 17.0787 18.6021C17.3426 18.953 17.6859 19.2039 18.1242 19.3092C18.1524 19.233 18.1183 19.1828 18.1028 19.1292C18.0143 18.8241 17.9127 18.5221 17.8408 18.2131C17.6016 17.1854 17.5858 16.1497 17.7623 15.0771ZM7.61831 3.74383C7.62329 3.961 7.68805 4.03687 7.89549 4.0439C8.10527 4.05102 8.31545 4.04488 8.52543 4.04717C8.96684 4.05197 9.25362 4.33788 9.25479 4.77566C9.2562 5.30383 9.24853 5.83213 9.2571 6.36017C9.26684 6.96053 9.13247 6.85968 9.78424 6.87233C9.91859 6.87493 9.9604 6.82101 9.9599 6.69158C9.95615 5.72432 9.9564 4.75704 9.95787 3.78977C9.95812 3.62743 9.88218 3.56132 9.7239 3.56196C9.11936 3.56441 8.51481 3.56376 7.91027 3.56229C7.78557 3.56199 7.6856 3.59858 7.61831 3.74383ZM18.5362 18.685C18.5677 18.7852 18.5975 18.8862 18.6859 19.0016C19.2811 17.2925 19.2772 15.6219 18.689 13.921C18.1547 14.6432 18.0811 17.1797 18.5362 18.685ZM9.32046 16.2873C9.50789 16.3306 9.54371 16.2385 9.54343 16.0702C9.53944 13.6837 9.54074 11.2972 9.5407 8.91072C9.5407 8.87891 9.53925 8.84708 9.53977 8.81528C9.54238 8.6563 9.43645 8.65744 9.33102 8.68532C9.21715 8.71544 9.25676 8.82045 9.2567 8.89567C9.25478 11.2885 9.25501 13.6814 9.25619 16.0742C9.25622 16.1417 9.23498 16.2157 9.32046 16.2873ZM18.3816 5.9011C18.3816 6.09177 18.3785 6.2825 18.3822 6.4731C18.3904 6.90289 18.2955 6.86756 18.7958 6.87145C18.9262 6.87246 18.9748 6.82547 18.9743 6.69298C18.9704 5.67608 18.9715 4.65916 18.9716 3.64225C18.9717 3.57053 18.9638 3.50135 18.9138 3.44611C18.8295 3.35297 18.7358 3.27859 18.5984 3.32766C18.4377 3.38503 18.3809 3.5079 18.3812 3.67018C18.3824 4.40108 18.3817 5.13199 18.3816 5.9011ZM3.5644 6.54657C3.56482 6.87024 3.56482 6.87025 3.88064 6.86914C3.91876 6.86901 3.95702 6.86655 3.99497 6.86894C4.10659 6.87597 4.15537 6.82911 4.15509 6.71326C4.15262 5.68402 4.15474 4.65476 4.15151 3.62553C4.15097 3.45298 4.0269 3.32094 3.87871 3.31107C3.72885 3.3011 3.58564 3.43768 3.56789 3.61232C3.56149 3.67528 3.56449 3.73927 3.56447 3.80278C3.56429 4.70497 3.56433 5.60715 3.5644 6.54657ZM9.958 7.66447C9.95511 7.42216 9.95511 7.42216 9.69848 7.42119C9.25455 7.41951 9.25455 7.41951 9.25527 7.86314C9.2557 8.12412 9.2557 8.12412 9.53504 8.12385C9.95865 8.12343 9.95865 8.12343 9.958 7.66447ZM18.4015 7.46222C18.3656 7.54789 18.3824 7.638 18.3819 7.72599C18.3796 8.14923 18.4258 8.18745 18.8491 8.12207C18.8553 8.1211 18.8617 8.1212 18.868 8.12055C18.9264 8.11462 18.954 8.08243 18.9681 8.02468C19.0928 7.51416 18.9484 7.35779 18.4015 7.46222ZM4.15341 7.80857C4.15332 7.73891 4.14819 7.66881 4.15422 7.59969C4.16553 7.47009 4.1155 7.4187 3.98124 7.4205C3.49718 7.42701 3.57091 7.38391 3.56423 7.81632C3.56326 7.87961 3.5647 7.94296 3.5659 8.00627C3.56664 8.04513 3.5709 8.09477 3.61003 8.10346C3.77169 8.13937 3.94237 8.15114 4.09638 8.10191C4.20316 8.06778 4.13663 7.93314 4.15341 7.80857Z" fill="#637381"/>
<path id="Vector_2" d="M2.76237 14.3129C2.83546 14.1867 2.94094 14.1573 3.06178 14.1571C3.59461 14.1563 4.12745 14.1526 4.66027 14.1547C4.86471 14.1555 4.9774 14.2597 4.9771 14.4297C4.97679 14.6032 4.86916 14.7083 4.66439 14.71C4.1316 14.7146 3.59868 14.7158 3.06593 14.7094C2.81273 14.7063 2.7243 14.5875 2.76237 14.3129Z" fill="#637381"/>
<path id="Vector_3" d="M3.10236 16.052C2.84503 16.0408 2.74183 15.9617 2.74025 15.788C2.73862 15.6092 2.86436 15.5027 3.09133 15.5016C3.60653 15.4991 4.12177 15.4986 4.63697 15.5014C4.86684 15.5027 4.98313 15.6081 4.97682 15.7949C4.97086 15.9715 4.86356 16.0534 4.62776 16.0538C4.12526 16.0545 3.62276 16.0528 3.10236 16.052Z" fill="#637381"/>
</g>
</svg>
